<?xml version="1.0" standalone="no"?>
<!DOCTYPE svg PUBLIC "-//W3C//DTD SVG 20010904//EN"
 "http://www.w3.org/TR/2001/REC-SVG-20010904/DTD/svg10.dtd">
<svg version="1.0" xmlns="http://www.w3.org/2000/svg"
 width="128.000000pt" height="128.000000pt" viewBox="0 0 128.000000 128.000000"
 preserveAspectRatio="xMidYMid meet">

<g transform="translate(0.000000,128.000000) scale(0.100000,-0.100000)"
fill="#de0000" stroke="none">
<path d="M174 1172 c-35 -5 -66 -46 -66 -88 0 -35 12 -48 196 -233 108 -108
196 -203 196 -211 0 -8 -88 -103 -196 -211 -184 -185 -196 -198 -196 -233 0
-53 33 -86 86 -86 40 0 46 5 236 195 107 107 202 195 210 195 8 0 103 -88 210
-195 190 -190 196 -195 236 -195 53 0 86 33 86 86 0 35 -12 48 -196 233 -108
108 -196 203 -196 211 0 8 88 103 196 211 185 185 196 198 196 234 0 51 -36
87 -87 87 -36 0 -49 -11 -234 -196 -108 -108 -203 -196 -211 -196 -8 0 -102
87 -209 194 -107 107 -203 196 -215 198 -12 2 -31 2 -42 0z"/>
</g>
</svg>
