<?xml version="1.0" standalone="no"?>
<!DOCTYPE svg PUBLIC "-//W3C//DTD SVG 20010904//EN"
 "http://www.w3.org/TR/2001/REC-SVG-20010904/DTD/svg10.dtd">
<svg version="1.0" xmlns="http://www.w3.org/2000/svg"
 width="128.000000pt" height="128.000000pt" viewBox="0 0 128.000000 128.000000"
 preserveAspectRatio="xMidYMid meet">

<g transform="translate(0.000000,128.000000) scale(0.100000,-0.100000)"
fill="#0044ff" stroke="none">
<path d="M493 1165 c-163 -45 -314 -188 -369 -347 -27 -75 -27 -281 0 -356 58
-169 225 -317 396 -353 81 -17 243 -7 310 20 168 65 306 223 341 391 17 81 6
242 -20 311 -36 94 -112 192 -192 249 -107 74 -162 92 -299 96 -80 3 -131 -1
-167 -11z m312 -170 c76 -37 153 -113 191 -190 26 -55 29 -69 29 -165 0 -96
-3 -110 -29 -165 -38 -77 -114 -153 -191 -191 -55 -26 -69 -29 -165 -29 -96 0
-110 3 -165 29 -77 38 -153 114 -191 191 -26 55 -29 69 -29 165 0 94 3 111 27
160 51 104 126 172 231 211 80 30 212 22 292 -16z"/>
</g>
</svg>
